<?xml version="1.0" standalone="no"?>
<!DOCTYPE svg PUBLIC "-//W3C//DTD SVG 20010904//EN"
 "http://www.w3.org/TR/2001/REC-SVG-20010904/DTD/svg10.dtd">
<svg version="1.0" xmlns="http://www.w3.org/2000/svg"
 width="1000.000000pt" height="1000.000000pt" viewBox="0 0 1000.000000 1000.000000"
 preserveAspectRatio="xMidYMid meet">
<metadata>
Created by potrace 1.14, written by Peter Selinger 2001-2017
</metadata>
<g transform="translate(0.000000,1000.000000) scale(0.100000,-0.100000)"
fill="#000000" stroke="none">
<path d="M5735 7725 c-81 -18 -141 -52 -194 -111 -67 -73 -86 -131 -85 -254 1
-140 44 -225 148 -294 205 -136 516 -58 596 149 32 81 34 212 5 295 -27 76
-121 169 -201 200 -69 25 -195 33 -269 15z m183 -195 c95 -58 89 -290 -8 -329
-82 -33 -163 -10 -196 55 -25 52 -25 174 0 222 36 69 135 94 204 52z"/>
<path d="M3045 6900 c-27 -4 -69 -10 -92 -13 -133 -19 -300 -87 -406 -166
-132 -97 -230 -250 -277 -431 -7 -25 -12 -46 -12 -47 1 -2 -4 -17 -9 -35 -19
-68 -29 -294 -19 -453 8 -140 53 -312 109 -424 28 -54 137 -201 150 -201 3 0
20 -13 36 -28 73 -69 262 -155 385 -176 121 -21 602 -29 752 -13 343 37 571
186 677 445 15 37 28 72 29 77 1 6 7 33 14 60 8 31 12 121 13 238 l0 188 -37
35 c-29 26 -47 34 -75 35 -21 0 -196 0 -389 1 -394 0 -398 -1 -432 -70 -25
-50 -24 -197 2 -236 36 -56 63 -63 234 -64 86 0 164 -1 173 -1 37 -2 -5 -153
-59 -213 -56 -62 -120 -90 -237 -105 -83 -11 -466 -7 -522 5 -179 39 -252 131
-289 362 -15 91 -20 333 -10 410 6 40 17 108 21 130 18 92 77 188 138 227 101
64 165 75 447 78 339 3 424 -21 502 -142 71 -110 113 -130 274 -128 115 0 170
19 198 66 34 58 25 165 -21 258 -28 55 -130 157 -187 187 -263 138 -333 153
-741 152 -159 0 -312 -4 -340 -8z"/>
<path d="M5618 6895 c-2 -1 -27 -6 -57 -9 -30 -4 -64 -9 -75 -11 -12 -3 -32
-7 -46 -9 -124 -20 -316 -112 -393 -190 -121 -121 -151 -189 -251 -576 -19
-74 -89 -340 -155 -591 -66 -251 -123 -471 -126 -490 -4 -28 0 -41 24 -69 l29
-35 178 1 c164 0 183 2 220 22 23 12 51 36 62 54 11 18 42 115 69 215 l48 183
45 1 c50 1 818 0 892 0 l47 -1 -1 -188 c-1 -205 4 -228 55 -266 25 -19 43 -21
195 -22 151 -1 171 1 206 20 24 13 44 34 52 53 12 26 14 197 14 926 l0 894
-23 34 c-41 61 -28 59 -539 58 -257 -1 -468 -3 -470 -4z m503 -394 c12 -2 7
-711 -5 -712 -37 -2 -859 1 -862 3 -7 7 126 471 148 514 47 95 153 174 259
192 33 6 434 8 460 3z"/>
<path d="M7117 6886 c-36 -19 -55 -39 -66 -68 -4 -13 -8 -427 -7 -920 1 -890
1 -897 22 -925 39 -53 65 -59 246 -58 182 1 201 6 237 66 17 28 19 57 19 302
0 150 1 292 1 315 l1 44 208 -4 c200 -3 209 -4 265 -30 98 -46 154 -111 309
-352 152 -239 187 -282 255 -317 41 -21 56 -23 245 -24 207 -1 235 4 248 40
13 34 -10 81 -155 310 -206 328 -275 415 -370 471 l-47 27 83 24 c126 36 224
89 294 158 53 52 90 106 95 140 1 6 6 15 10 20 16 19 28 128 24 210 -15 285
-210 497 -521 565 -79 17 -139 19 -727 19 -545 1 -645 -1 -669 -13z m1203
-404 c142 -46 196 -111 188 -228 -5 -77 -34 -123 -103 -161 -100 -54 -140 -59
-503 -60 l-332 -1 -1 51 c-1 64 -1 363 0 397 l1 26 343 -2 c316 -2 347 -3 407
-22z"/>
<path d="M1250 6887 c-3 -3 -24 -7 -47 -11 -97 -13 -208 -90 -253 -176 -37
-72 -53 -158 -52 -285 1 -116 7 -161 33 -230 59 -159 194 -238 403 -236 112 1
127 4 197 30 67 25 139 86 174 146 47 79 59 139 60 290 0 120 -3 150 -23 210
-58 175 -171 252 -382 262 -58 3 -107 3 -110 0z m220 -242 c92 -36 133 -100
136 -213 4 -118 -31 -188 -121 -235 -51 -26 -200 -33 -270 -13 -98 30 -153
104 -159 212 -6 143 56 234 180 263 58 13 183 6 234 -14z"/>
<path d="M703 6659 c-31 -11 -36 -25 -34 -93 1 -49 5 -64 22 -79 22 -17 72
-19 110 -3 32 14 39 121 11 156 -18 23 -73 33 -109 19z"/>
<path d="M707 6367 c-15 -5 -29 -18 -33 -30 -13 -37 -5 -119 13 -139 19 -22
90 -25 117 -5 25 18 33 120 12 152 -17 25 -68 36 -109 22z"/>
<path d="M1185 5860 c-78 -21 -112 -40 -158 -86 -90 -91 -113 -193 -115 -508
-1 -208 1 -225 18 -241 17 -16 52 -17 367 -17 472 1 430 -2 444 24 15 28 14
448 -1 527 -31 161 -113 258 -249 298 -76 22 -231 23 -306 3z m264 -222 c60
-16 105 -63 121 -128 7 -29 13 -102 14 -163 l1 -112 -254 -3 -253 -2 4 137 c5
152 18 199 65 236 62 50 188 64 302 35z"/>
<path d="M957 4841 c-36 -11 -45 -33 -45 -106 1 -112 -16 -107 312 -107 l276
0 -45 -32 c-25 -17 -71 -47 -103 -68 -220 -141 -409 -267 -422 -282 -10 -13
-15 -50 -18 -125 -3 -92 -1 -110 15 -130 l18 -23 345 1 c475 0 438 -2 449 20
6 10 11 52 12 92 2 109 13 105 -284 104 -136 0 -247 3 -247 7 0 3 53 40 118
82 267 169 382 247 397 270 15 22 21 120 16 248 -2 49 -16 51 -413 52 -202 1
-374 -1 -381 -3z"/>
<path d="M2434 4578 c-36 -10 -55 -25 -79 -61 -17 -26 -18 -75 -17 -890 0
-474 1 -883 3 -909 2 -39 9 -54 36 -80 l34 -33 542 0 c386 0 561 4 607 12 36
7 83 15 105 19 64 10 225 64 296 99 144 73 241 170 320 321 23 43 40 79 39 79
-1 0 7 29 18 65 11 36 23 85 27 110 4 25 10 54 12 65 12 51 10 356 -3 445 -47
313 -188 521 -429 635 -140 66 -264 97 -485 121 -92 10 -991 11 -1026 2z
m1011 -403 c228 -37 327 -115 385 -301 44 -143 46 -392 5 -547 -51 -194 -160
-281 -405 -322 -19 -4 -155 -8 -302 -10 l-268 -4 0 600 0 600 253 -2 c153 0
283 -6 332 -14z"/>
<path d="M4774 4577 c-21 -4 -47 -15 -57 -25 -49 -44 -47 -12 -47 -964 0 -870
1 -894 20 -923 11 -17 34 -38 52 -47 30 -17 94 -18 913 -18 818 0 882 1 914
18 62 31 74 59 75 169 1 115 -12 154 -61 184 -35 22 -37 22 -694 21 -488 0
-659 3 -659 12 -1 20 -1 259 -1 327 l1 66 568 0 c629 0 611 -2 652 66 29 46
29 217 0 264 -36 60 -15 58 -643 63 l-579 5 1 145 c0 80 0 169 0 197 l1 52
668 3 c649 3 668 4 694 23 45 33 58 73 58 178 0 81 -3 99 -23 128 -45 67 7 63
-949 64 -477 0 -884 -3 -904 -8z"/>
<path d="M7163 4578 c-35 -10 -54 -25 -77 -60 -17 -26 -18 -81 -18 -922 0
-981 -4 -930 61 -973 32 -22 44 -23 188 -23 178 0 208 9 240 68 19 36 19 56
19 635 -1 328 1 597 4 597 4 0 228 -344 290 -446 30 -48 317 -494 446 -691 29
-44 68 -93 86 -107 71 -54 87 -56 370 -56 243 0 265 2 295 20 66 40 63 -13 63
969 0 985 3 937 -64 977 -26 16 -53 18 -181 18 -164 1 -197 -7 -230 -52 -19
-26 -20 -47 -25 -691 l-5 -664 -125 194 c-69 107 -165 256 -215 331 -49 76
-120 184 -156 240 -118 181 -260 401 -315 483 -51 78 -111 133 -164 151 -32
10 -449 12 -487 2z"/>
<path d="M957 3801 c-35 -11 -45 -33 -46 -107 -2 -122 -32 -114 423 -114 425
0 415 -2 417 63 4 95 -2 132 -22 146 -16 12 -89 14 -390 15 -203 1 -375 -1
-382 -3z"/>
<path d="M1685 3469 c-81 -43 -234 -150 -263 -184 l-31 -35 -10 38 c-15 54
-57 113 -99 141 -55 37 -158 35 -227 -2 -58 -32 -101 -85 -125 -154 -14 -40
-17 -94 -18 -336 -1 -264 1 -290 17 -306 16 -16 48 -18 397 -19 319 -1 382 1
401 14 21 13 23 22 23 98 0 65 -4 87 -16 97 -12 10 -54 14 -148 15 -72 1 -134
2 -137 3 -3 0 -5 41 -3 89 4 133 10 142 226 278 65 41 79 68 79 161 1 107 1
110 -15 116 -8 3 -31 -3 -51 -14z m-451 -258 c32 -28 39 -63 42 -221 l2 -155
-96 0 -97 0 0 160 c0 184 10 218 68 233 36 10 54 6 81 -17z"/>
</g>
</svg>
